<svg width="36" height="40" viewBox="0 0 36 40" fill="none" xmlns="http://www.w3.org/2000/svg">
<rect width="36" height="40" rx="10" fill="#1B611B" fill-opacity="0.1"/>
<path d="M28.6387 13.8418L20.5 5.62402C20.3682 5.49219 20.2246 5.38086 20.0693 5.28711C20.0283 5.26367 19.9873 5.24023 19.9434 5.21973C19.917 5.20508 19.8877 5.19336 19.8613 5.18164C19.5977 5.06445 19.3076 5 19.0117 5H8.9043C7.73828 5 6.76562 5.94336 6.76562 7.10938V32.8906C6.76562 34.0566 7.73828 35 8.9043 35H27.1562C28.3223 35 29.2363 34.0566 29.2363 32.8906V15.3271C29.2363 14.7705 29.0312 14.2373 28.6387 13.8418ZM20.0957 8.23438L25.9785 14.1406H20.0957V8.23438ZM27.127 32.8906H8.875V7.10938H17.9863V14.1406C17.9863 15.3066 18.959 16.25 20.125 16.25H27.127V32.8906ZM13.2695 25.4053C13.2695 26.1143 13.0498 26.3252 12.6279 26.3252C12.3643 26.3252 12.0889 26.1553 11.9014 25.7832L11.0107 26.4453C11.4033 27.1162 11.957 27.4473 12.8066 27.4473C14.0254 27.4473 14.5879 26.5713 14.5879 25.5078V21.9043H13.2695V25.4053ZM17.7021 21.9043H15.8184V27.3535H17.1074V25.5371H17.7402C18.8857 25.5371 19.8818 24.9629 19.8818 23.6738C19.8818 22.332 18.9004 21.9043 17.7021 21.9043ZM17.6787 24.5117H17.1074V22.959H17.6406C18.2705 22.959 18.6191 23.1406 18.6191 23.6885C18.6191 24.2188 18.3115 24.5117 17.6787 24.5117ZM23.0254 24.248V25.3027H23.9043V26.1846C23.7871 26.2695 23.582 26.3223 23.3857 26.3223C22.3809 26.3223 21.9004 25.6953 21.9004 24.6172C21.9004 23.5596 22.4775 22.9355 23.2803 22.9355C23.7285 22.9355 24.0127 23.1172 24.2764 23.3574L24.9707 22.5283C24.5986 22.1533 24.0303 21.8193 23.2363 21.8193C21.7832 21.8193 20.5674 22.8535 20.5674 24.6611C20.5674 26.498 21.7393 27.4473 23.248 27.4473C24.0068 27.4473 24.6895 27.1484 25.0498 26.7852V24.248H23.0254Z" fill="#1B611B"/>
</svg>
