<svg width="20" height="11" viewBox="0 0 20 11" fill="none" xmlns="http://www.w3.org/2000/svg">
<path d="M19.7336 1.56554L10.6431 10.7312C10.5587 10.8164 10.4585 10.884 10.3481 10.9301C10.2378 10.9763 10.1195 11 10 11C9.88054 11 9.76225 10.9763 9.65189 10.9301C9.54153 10.884 9.44127 10.8164 9.35685 10.7312L0.266401 1.56554C0.0958273 1.39356 0 1.1603 0 0.917074C0 0.673851 0.0958273 0.440589 0.266401 0.268604C0.436975 0.0966195 0.668323 0 0.90955 0C1.15078 0 1.38213 0.0966195 1.5527 0.268604L10 8.78692L18.4473 0.268604C18.5318 0.183446 18.632 0.115895 18.7424 0.0698077C18.8527 0.0237204 18.971 0 19.0904 0C19.2099 0 19.3282 0.0237204 19.4385 0.0698077C19.5489 0.115895 19.6491 0.183446 19.7336 0.268604C19.8181 0.353762 19.8851 0.45486 19.9308 0.566125C19.9765 0.677389 20 0.796642 20 0.917074C20 1.03751 19.9765 1.15676 19.9308 1.26802C19.8851 1.37929 19.8181 1.48039 19.7336 1.56554Z" fill="black"/>
</svg>
