<svg width="36" height="40" viewBox="0 0 36 40" fill="none" xmlns="http://www.w3.org/2000/svg">
<rect width="36" height="40" rx="10" fill="#3D6A8A" fill-opacity="0.1"/>
<path fill-rule="evenodd" clip-rule="evenodd" d="M29.1602 13.4355V25.623H27.2852V13.4355H23.5352C22.7892 13.4355 22.0739 13.1392 21.5464 12.6118C21.019 12.0843 20.7227 11.369 20.7227 10.623V6.87305H10.4102C9.91288 6.87305 9.43596 7.07059 9.08433 7.42222C8.7327 7.77385 8.53516 8.25077 8.53516 8.74805V25.623H6.66016V8.74805C6.66016 7.75348 7.05524 6.79966 7.75851 6.0964C8.46177 5.39314 9.41559 4.99805 10.4102 4.99805H20.7227L29.1602 13.4355ZM16.337 31.6005V30.6218C16.3529 30.2099 16.278 29.7996 16.1177 29.4199C15.9933 29.1232 15.783 28.8705 15.5139 28.6943C15.2502 28.5307 14.9448 28.4467 14.6345 28.4524C14.3229 28.4476 14.0165 28.5322 13.7514 28.6962C13.4847 28.8733 13.276 29.125 13.1514 29.4199C12.9911 29.7996 12.9162 30.2099 12.932 30.6218V31.6005C12.932 32.0805 13.0052 32.4812 13.1514 32.8024C13.2757 33.098 13.4844 33.3504 13.7514 33.528C14.0184 33.6866 14.324 33.7683 14.6345 33.7643C14.9438 33.7676 15.248 33.6859 15.5139 33.528C15.7827 33.3523 15.993 33.1003 16.1177 32.8043C16.2754 32.4232 16.3502 32.0128 16.337 31.6005ZM17.8427 30.633V31.5949C17.8427 32.2987 17.7145 32.9068 17.4583 33.4193C17.2156 33.9125 16.831 34.3219 16.3539 34.5949C15.8777 34.8649 15.3045 34.9999 14.6345 34.9999C14.0343 35.0157 13.4401 34.8762 12.9095 34.5949C12.4317 34.3229 12.0469 33.9132 11.8052 33.4193C11.5362 32.8496 11.4046 32.2247 11.4208 31.5949V30.633C11.4208 29.9218 11.5489 29.3124 11.8052 28.8049C12.0614 28.2912 12.4302 27.8993 12.9114 27.6293C13.3939 27.3543 13.9689 27.2168 14.6364 27.2168C15.3052 27.2168 15.8777 27.3543 16.3539 27.6293C16.8327 27.903 17.2014 28.2968 17.4602 28.8105C17.7152 29.318 17.8427 29.9255 17.8427 30.633ZM4.78516 34.8574V27.3593H7.52078C8.28203 27.3593 8.91016 27.5062 9.40516 27.7999C9.90016 28.0912 10.2683 28.5162 10.5095 29.0749C10.7545 29.6312 10.877 30.3024 10.877 31.0887C10.877 31.8812 10.7545 32.5587 10.5095 33.1212C10.2633 33.6849 9.89141 34.1155 9.39391 34.413C8.89891 34.7093 8.27453 34.8574 7.52078 34.8574H4.78516ZM7.32391 28.5687H6.26641V33.6443H7.32203C7.66828 33.6443 7.97016 33.593 8.22766 33.4905C8.47463 33.3914 8.69077 33.2283 8.85391 33.018C9.01891 32.8055 9.14141 32.5418 9.22141 32.2268C9.31186 31.8639 9.35472 31.4908 9.34891 31.1168C9.34891 30.5543 9.27516 30.0837 9.12766 29.7049C9.00557 29.3562 8.77239 29.0571 8.46391 28.8537C8.16766 28.6637 7.78641 28.5687 7.32016 28.5687H7.32391ZM19.9914 30.6612C19.9914 30.1949 20.0558 29.7993 20.1845 29.4743C20.2958 29.1758 20.4919 28.9164 20.7489 28.728C21.011 28.5499 21.3228 28.4593 21.6395 28.4693C21.9208 28.4693 22.1695 28.5299 22.3858 28.6512C22.5978 28.7638 22.7748 28.9324 22.8977 29.1387C23.0283 29.3555 23.1055 29.6004 23.1227 29.853H24.557V29.7162C24.5446 29.3708 24.4605 29.0318 24.3101 28.7206C24.1597 28.4095 23.9462 28.133 23.6833 27.9087C23.4145 27.6785 23.102 27.505 22.7645 27.3987C22.399 27.2734 22.0147 27.2119 21.6283 27.2168C20.9608 27.2168 20.3914 27.3562 19.9202 27.6349C19.4514 27.9124 19.0945 28.308 18.8495 28.8218C18.6033 29.3343 18.4802 29.9455 18.4802 30.6555V31.5893C18.4802 32.2993 18.6014 32.9093 18.8439 33.4193C19.0877 33.9268 19.4445 34.3187 19.9145 34.5949C20.3833 34.8649 20.9545 34.9999 21.6283 34.9999C22.1783 34.9999 22.6689 34.8974 23.1002 34.6924C23.5314 34.4874 23.8758 34.2037 24.1333 33.8412C24.392 33.4688 24.539 33.0304 24.557 32.5774V32.4349H23.1227C23.1058 32.6768 23.0305 32.911 22.9033 33.1174C22.7773 33.3154 22.6005 33.476 22.3914 33.5824C22.1568 33.6946 21.8995 33.7511 21.6395 33.7474C21.323 33.7564 21.011 33.6709 20.7433 33.5018C20.4867 33.3185 20.2918 33.0615 20.1845 32.7649C20.0468 32.3887 19.9813 31.9898 19.9914 31.5893V30.6612ZM29.5389 27.3612H31.2152L28.8245 31.1224L31.1758 34.8574H29.4733L27.8795 32.2043H27.8139L26.2164 34.8574H24.6002L26.9252 31.0793L24.6227 27.3593H26.3702L27.9302 30.0574H27.9958L29.5389 27.3612Z" fill="#3D6A8A"/>
</svg>
