<svg width="38" height="38" viewBox="0 0 38 38" fill="none" xmlns="http://www.w3.org/2000/svg">
<rect width="38" height="38" rx="19" fill="#3D6A8A" fill-opacity="0.4"/>
<path d="M11.5 31H26.5C27.875 31 29 29.875 29 28.5V17.25C29 15.875 27.875 14.75 26.5 14.75H25.25V12.25C25.25 8.8 22.45 6 19 6C15.55 6 12.75 8.8 12.75 12.25V14.75H11.5C10.125 14.75 9 15.875 9 17.25V28.5C9 29.875 10.125 31 11.5 31ZM15.25 12.25C15.25 10.1875 16.9375 8.5 19 8.5C21.0625 8.5 22.75 10.1875 22.75 12.25V14.75H15.25V12.25ZM11.5 17.25H26.5V28.5H11.5V17.25Z" fill="#102E44"/>
</svg>
