<svg width="40" height="40" viewBox="0 0 40 40" fill="none" xmlns="http://www.w3.org/2000/svg">
<path fill-rule="evenodd" clip-rule="evenodd" d="M28.75 17.5C31.7337 17.5 34.5952 18.6853 36.705 20.795C38.8147 22.9048 40 25.7663 40 28.75C40 31.7337 38.8147 34.5952 36.705 36.705C34.5952 38.8147 31.7337 40 28.75 40C25.7663 40 22.9048 38.8147 20.795 36.705C18.6853 34.5952 17.5 31.7337 17.5 28.75C17.5 25.7663 18.6853 22.9048 20.795 20.795C22.9048 18.6853 25.7663 17.5 28.75 17.5ZM34.635 25.365C34.4006 25.1307 34.0827 24.999 33.7512 24.999C33.4198 24.999 33.1019 25.1307 32.8675 25.365L27.5 30.735L24.635 27.87C24.5189 27.7538 24.3811 27.6616 24.2294 27.5986C24.0777 27.5356 23.9151 27.5032 23.7509 27.5031C23.5866 27.5029 23.424 27.5352 23.2722 27.5979C23.1204 27.6607 22.9825 27.7527 22.8662 27.8687C22.75 27.9848 22.6578 28.1226 22.5948 28.2743C22.5319 28.426 22.4994 28.5886 22.4993 28.7529C22.4992 28.9171 22.5314 29.0798 22.5942 29.2316C22.6569 29.3833 22.7489 29.5213 22.865 29.6375L26.615 33.3875C26.8494 33.6218 27.1673 33.7535 27.4988 33.7535C27.8302 33.7535 28.1481 33.6218 28.3825 33.3875L34.6325 27.1375C34.8668 26.9031 34.9985 26.5852 34.9985 26.2537C34.9985 25.9223 34.8668 25.6044 34.6325 25.37" fill="#FAB84C"/>
<path fill-rule="evenodd" clip-rule="evenodd" d="M13.965 5C14.9592 5.00088 15.9124 5.39654 16.615 6.1L20.5175 10H31.25C32.9076 10 34.4973 10.6585 35.6694 11.8306C36.8415 13.0027 37.5 14.5924 37.5 16.25V18.1425C36.7289 17.5057 35.8906 16.955 35 16.5V16.25C35 15.2554 34.6049 14.3016 33.9017 13.5983C33.1984 12.8951 32.2446 12.5 31.25 12.5H20.5175L16.6175 16.4C16.269 16.7489 15.8551 17.0257 15.3996 17.2144C14.944 17.4032 14.4556 17.5002 13.9625 17.5H5V28.75C5 29.7446 5.39509 30.6984 6.09835 31.4017C6.80161 32.1049 7.75544 32.5 8.75 32.5H15.5175C15.7658 33.3733 16.0933 34.2067 16.5 35H8.75C7.0924 35 5.50269 34.3415 4.33058 33.1694C3.15848 31.9973 2.5 30.4076 2.5 28.75V11.25C2.5 9.5924 3.15848 8.00269 4.33058 6.83058C5.50269 5.65848 7.0924 5 8.75 5H13.965ZM8.75 7.5C7.75544 7.5 6.80161 7.89509 6.09835 8.59835C5.39509 9.30161 5 10.2554 5 11.25V15H13.965C14.2959 14.9999 14.6132 14.8687 14.8475 14.635L18.2325 11.25L14.8475 7.865C14.6132 7.63133 14.2959 7.50007 13.965 7.5H8.75Z" fill="#FAB84C"/>
</svg>
