<svg width="40" height="40" viewBox="0 0 40 40" fill="none" xmlns="http://www.w3.org/2000/svg">
<path d="M10.9688 29.4414L27.0117 6.52342C27.1037 6.38382 27.2227 6.26407 27.3617 6.17127C27.5007 6.07846 27.657 6.01449 27.8212 5.98313C27.9854 5.95177 28.1542 5.95366 28.3176 5.98869C28.4811 6.02373 28.6358 6.09119 28.7728 6.18708C28.9097 6.28298 29.026 6.40536 29.1148 6.54699C29.2036 6.68862 29.263 6.84662 29.2897 7.01165C29.3163 7.17667 29.3096 7.34536 29.2699 7.50774C29.2302 7.67012 29.1584 7.82289 29.0586 7.95701L12.2734 31.9336C12.1775 32.0709 12.0549 32.1876 11.9129 32.2767C11.771 32.3657 11.6126 32.4253 11.4471 32.4519C11.2817 32.4785 11.1126 32.4716 10.9499 32.4315C10.7872 32.3915 10.6342 32.3191 10.5 32.2187L1.50001 25.4687C1.23479 25.2698 1.05945 24.9737 1.01257 24.6455C0.965684 24.3173 1.05109 23.984 1.25001 23.7187C1.44892 23.4535 1.74504 23.2782 2.07323 23.2313C2.40142 23.1844 2.73479 23.2698 3.00001 23.4687L10.9688 29.4414ZM28.75 17.5C28.4185 17.5 28.1005 17.3683 27.8661 17.1339C27.6317 16.8994 27.5 16.5815 27.5 16.25C27.5 15.9185 27.6317 15.6005 27.8661 15.3661C28.1005 15.1317 28.4185 15 28.75 15H36.25C36.5815 15 36.8995 15.1317 37.1339 15.3661C37.3683 15.6005 37.5 15.9185 37.5 16.25C37.5 16.5815 37.3683 16.8994 37.1339 17.1339C36.8995 17.3683 36.5815 17.5 36.25 17.5H28.75ZM23.75 25C23.4185 25 23.1005 24.8683 22.8661 24.6339C22.6317 24.3994 22.5 24.0815 22.5 23.75C22.5 23.4185 22.6317 23.1005 22.8661 22.8661C23.1005 22.6317 23.4185 22.5 23.75 22.5H36.25C36.5815 22.5 36.8995 22.6317 37.1339 22.8661C37.3683 23.1005 37.5 23.4185 37.5 23.75C37.5 24.0815 37.3683 24.3994 37.1339 24.6339C36.8995 24.8683 36.5815 25 36.25 25H23.75ZM18.75 32.5C18.4185 32.5 18.1005 32.3683 17.8661 32.1339C17.6317 31.8994 17.5 31.5815 17.5 31.25C17.5 30.9185 17.6317 30.6005 17.8661 30.3661C18.1005 30.1317 18.4185 30 18.75 30H36.25C36.5815 30 36.8995 30.1317 37.1339 30.3661C37.3683 30.6005 37.5 30.9185 37.5 31.25C37.5 31.5815 37.3683 31.8994 37.1339 32.1339C36.8995 32.3683 36.5815 32.5 36.25 32.5H18.75Z" fill="#3D6A8A"/>
</svg>
