<svg width="38" height="36" viewBox="0 0 38 36" fill="none" xmlns="http://www.w3.org/2000/svg">
<rect width="38" height="36" rx="18" fill="#C83C3C" fill-opacity="0.3"/>
<path fill-rule="evenodd" clip-rule="evenodd" d="M20.6916 8.48276H17.3067C17.0823 8.48276 16.867 8.56995 16.7083 8.72515C16.5497 8.88036 16.4605 9.09086 16.4605 9.31034V10.1379H21.5378V9.31034C21.5378 9.09086 21.4487 8.88036 21.29 8.72515C21.1313 8.56995 20.916 8.48276 20.6916 8.48276ZM24.0765 10.1379V9.31034C24.0765 8.43239 23.7198 7.59039 23.0851 6.96958C22.4503 6.34877 21.5893 6 20.6916 6H17.3067C16.409 6 15.548 6.34877 14.9132 6.96958C14.2785 7.59039 13.9218 8.43239 13.9218 9.31034V10.1379H9.26933C8.93268 10.1379 8.60982 10.2687 8.37178 10.5015C8.13373 10.7343 8 11.0501 8 11.3793C8 11.7085 8.13373 12.0243 8.37178 12.2571C8.60982 12.4899 8.93268 12.6207 9.26933 12.6207H9.79737L10.3339 25.2414C10.3885 26.5216 10.9469 27.7315 11.8925 28.6184C12.8381 29.5052 14.0977 30.0003 15.4078 30H22.5922C23.902 29.9998 25.1611 29.5046 26.1064 28.6178C27.0516 27.731 27.6099 26.5213 27.6644 25.2414L28.2026 12.6207H28.7307C29.0673 12.6207 29.3902 12.4899 29.6282 12.2571C29.8663 12.0243 30 11.7085 30 11.3793C30 11.0501 29.8663 10.7343 29.6282 10.5015C29.3902 10.2687 29.0673 10.1379 28.7307 10.1379H24.0765ZM25.6606 12.6207H12.3377L12.8708 25.1371C12.8979 25.7773 13.1771 26.3825 13.6499 26.8261C14.1227 27.2697 14.7526 27.5174 15.4078 27.5172H22.5922C23.2471 27.5169 23.8766 27.2691 24.349 26.8256C24.8215 26.382 25.1004 25.7771 25.1275 25.1371L25.6606 12.6207ZM15.1912 15.931V24.2069C15.1912 24.5361 15.3249 24.8519 15.5629 25.0847C15.801 25.3175 16.1238 25.4483 16.4605 25.4483C16.7971 25.4483 17.12 25.3175 17.358 25.0847C17.5961 24.8519 17.7298 24.5361 17.7298 24.2069V15.931C17.7298 15.6018 17.5961 15.2861 17.358 15.0532C17.12 14.8204 16.7971 14.6897 16.4605 14.6897C16.1238 14.6897 15.801 14.8204 15.5629 15.0532C15.3249 15.2861 15.1912 15.6018 15.1912 15.931ZM21.5378 14.6897C21.8745 14.6897 22.1973 14.8204 22.4354 15.0532C22.6734 15.2861 22.8071 15.6018 22.8071 15.931V24.2069C22.8071 24.5361 22.6734 24.8519 22.4354 25.0847C22.1973 25.3175 21.8745 25.4483 21.5378 25.4483C21.2012 25.4483 20.8783 25.3175 20.6403 25.0847C20.4022 24.8519 20.2685 24.5361 20.2685 24.2069V15.931C20.2685 15.6018 20.4022 15.2861 20.6403 15.0532C20.8783 14.8204 21.2012 14.6897 21.5378 14.6897Z" fill="#C83C3C"/>
</svg>
