<svg width="24" height="24" viewBox="0 0 24 24" fill="none" xmlns="http://www.w3.org/2000/svg">
<path d="M2 12.5C2 8.022 2 5.782 3.391 4.391C4.782 3 7.021 3 11.501 3C15.979 3 18.218 3 19.609 4.391C21 5.782 21 8.021 21 12.5C21 16.978 21 19.218 19.609 20.609C18.218 22 15.979 22 11.5 22C7.022 22 4.783 22 3.391 20.609C2.001 19.217 2 16.979 2 12.5Z" stroke="white" stroke-width="1.7" stroke-linecap="round" stroke-linejoin="round"/>
<path d="M6 17.5263L10.4147 13.1126M12.1126 11.4137L16.5263 17.5263H13.6021L10.4147 13.1126L6 7H8.92316L12.1126 11.4147L16.5263 7" stroke="white" stroke-width="1.5" stroke-linecap="round" stroke-linejoin="round"/>
</svg>
