<svg width="30" height="30" viewBox="0 0 30 30" fill="none" xmlns="http://www.w3.org/2000/svg">
<path d="M3.75 16.25C8.25 6.25 21.75 6.25 26.25 16.25" stroke="#3D6A8A" stroke-width="1.5" stroke-linecap="round" stroke-linejoin="round"/>
<path d="M15 21.25C14.5075 21.25 14.0199 21.153 13.5649 20.9645C13.11 20.7761 12.6966 20.4999 12.3483 20.1517C12.0001 19.8034 11.7239 19.39 11.5355 18.9351C11.347 18.4801 11.25 17.9925 11.25 17.5C11.25 17.0075 11.347 16.5199 11.5355 16.0649C11.7239 15.61 12.0001 15.1966 12.3483 14.8483C12.6966 14.5001 13.11 14.2239 13.5649 14.0355C14.0199 13.847 14.5075 13.75 15 13.75C15.9946 13.75 16.9484 14.1451 17.6517 14.8483C18.3549 15.5516 18.75 16.5054 18.75 17.5C18.75 18.4946 18.3549 19.4484 17.6517 20.1517C16.9484 20.8549 15.9946 21.25 15 21.25Z" fill="#3D6A8A" stroke="#3D6A8A" stroke-width="1.5" stroke-linecap="round" stroke-linejoin="round"/>
</svg>
