<svg width="36" height="40" viewBox="0 0 36 40" fill="none" xmlns="http://www.w3.org/2000/svg">
<rect width="36" height="40" rx="10" fill="#CD5959" fill-opacity="0.1"/>
<path d="M10 21H9V19H10C10.2652 19 10.5196 19.1054 10.7071 19.2929C10.8946 19.4804 11 19.7348 11 20C11 20.2652 10.8946 20.5196 10.7071 20.7071C10.5196 20.8946 10.2652 21 10 21ZM17 25V19H18C18.2652 19 18.5196 19.1054 18.7071 19.2929C18.8946 19.4804 19 19.7348 19 20V24C19 24.2652 18.8946 24.5196 18.7071 24.7071C18.5196 24.8946 18.2652 25 18 25H17Z" fill="#CD5959"/>
<path fill-rule="evenodd" clip-rule="evenodd" d="M5 8C5 7.20435 5.31607 6.44129 5.87868 5.87868C6.44129 5.31607 7.20435 5 8 5H24.414L31 11.586V32C31 32.7956 30.6839 33.5587 30.1213 34.1213C29.5587 34.6839 28.7956 35 28 35H8C7.20435 35 6.44129 34.6839 5.87868 34.1213C5.31607 33.5587 5 32.7956 5 32V8ZM10 17H7V27H9V23H10C10.7956 23 11.5587 22.6839 12.1213 22.1213C12.6839 21.5587 13 20.7956 13 20C13 19.2044 12.6839 18.4413 12.1213 17.8787C11.5587 17.3161 10.7956 17 10 17ZM18 17H15V27H18C18.7956 27 19.5587 26.6839 20.1213 26.1213C20.6839 25.5587 21 24.7956 21 24V20C21 19.2044 20.6839 18.4413 20.1213 17.8787C19.5587 17.3161 18.7956 17 18 17ZM23 27V17H29V19H25V21H27V23H25V27H23Z" fill="#CD5959"/>
</svg>
