<svg width="24" height="24" viewBox="0 0 24 24" fill="none" xmlns="http://www.w3.org/2000/svg">
<path d="M18.6667 2C19.5507 2 20.3986 2.35119 21.0237 2.97631C21.6488 3.60143 22 4.44928 22 5.33333V18.6667C22 19.5507 21.6488 20.3986 21.0237 21.0237C20.3986 21.6488 19.5507 22 18.6667 22H5.33333C4.44928 22 3.60143 21.6488 2.97631 21.0237C2.35119 20.3986 2 19.5507 2 18.6667V5.33333C2 4.44928 2.35119 3.60143 2.97631 2.97631C3.60143 2.35119 4.44928 2 5.33333 2H18.6667ZM18.6667 4.22222H5.33333C5.03865 4.22222 4.75603 4.33929 4.54766 4.54766C4.33929 4.75603 4.22222 5.03865 4.22222 5.33333V18.6667C4.22222 18.9614 4.33929 19.244 4.54766 19.4523C4.75603 19.6607 5.03865 19.7778 5.33333 19.7778H18.6667C18.9614 19.7778 19.244 19.6607 19.4523 19.4523C19.6607 19.244 19.7778 18.9614 19.7778 18.6667V5.33333C19.7778 5.03865 19.6607 4.75603 19.4523 4.54766C19.244 4.33929 18.9614 4.22222 18.6667 4.22222ZM7.55556 9.77778C7.8277 9.77781 8.09038 9.87773 8.29375 10.0586C8.49712 10.2394 8.62705 10.4886 8.65889 10.7589L8.66667 10.8889V16.4444C8.66635 16.7276 8.55791 17 8.3635 17.206C8.16909 17.4119 7.90339 17.5358 7.62067 17.5524C7.33796 17.569 7.05958 17.477 6.84241 17.2953C6.62524 17.1135 6.48567 16.8557 6.45222 16.5744L6.44444 16.4444V10.8889C6.44444 10.5942 6.56151 10.3116 6.76988 10.1032C6.97826 9.89484 7.26087 9.77778 7.55556 9.77778ZM10.8889 8.66667C11.1491 8.66663 11.4011 8.75792 11.6009 8.92463C11.8007 9.09133 11.9356 9.32288 11.9822 9.57889C12.206 9.44964 12.4372 9.33352 12.6744 9.23111C13.4156 8.91445 14.5256 8.74 15.5278 9.05444C16.0533 9.22111 16.5811 9.53222 16.9722 10.0622C17.3222 10.5344 17.5111 11.1089 17.5489 11.7544L17.5556 12V16.4444C17.5552 16.7276 17.4468 17 17.2524 17.206C17.058 17.4119 16.7923 17.5358 16.5096 17.5524C16.2268 17.569 15.9485 17.477 15.7313 17.2953C15.5141 17.1135 15.3746 16.8557 15.3411 16.5744L15.3333 16.4444V12C15.3333 11.6333 15.2444 11.4622 15.1867 11.3833C15.1036 11.2803 14.9894 11.207 14.8611 11.1744C14.4744 11.0522 13.9178 11.1167 13.5478 11.2744C12.9922 11.5122 12.4833 11.8856 12.1367 12.2311L12 12.3778V16.4444C11.9997 16.7276 11.8912 17 11.6968 17.206C11.5024 17.4119 11.2367 17.5358 10.954 17.5524C10.6713 17.569 10.3929 17.477 10.1757 17.2953C9.95857 17.1135 9.819 16.8557 9.78556 16.5744L9.77778 16.4444V9.77778C9.77778 9.48309 9.89484 9.20048 10.1032 8.9921C10.3116 8.78373 10.5942 8.66667 10.8889 8.66667ZM7.55556 6.44444C7.85024 6.44444 8.13286 6.56151 8.34123 6.76988C8.5496 6.97826 8.66667 7.26087 8.66667 7.55556C8.66667 7.85024 8.5496 8.13286 8.34123 8.34123C8.13286 8.5496 7.85024 8.66667 7.55556 8.66667C7.26087 8.66667 6.97826 8.5496 6.76988 8.34123C6.56151 8.13286 6.44444 7.85024 6.44444 7.55556C6.44444 7.26087 6.56151 6.97826 6.76988 6.76988C6.97826 6.56151 7.26087 6.44444 7.55556 6.44444Z" fill="white"/>
</svg>
