<svg width="21" height="21" viewBox="0 0 21 21" fill="none" xmlns="http://www.w3.org/2000/svg">
<path d="M20.8809 19.7222C19.3448 16.9604 16.9775 14.9801 14.2148 14.0413C15.5814 13.1954 16.6431 11.9063 17.2369 10.3721C17.8308 8.83786 17.9239 7.14335 17.5021 5.54877C17.0802 3.95418 16.1666 2.54769 14.9017 1.54529C13.6367 0.542886 12.0904 0 10.5 0C8.90964 0 7.36325 0.542886 6.09831 1.54529C4.83337 2.54769 3.91982 3.95418 3.49795 5.54877C3.07608 7.14335 3.16922 8.83786 3.76307 10.3721C4.35691 11.9063 5.41863 13.1954 6.78517 14.0413C4.0225 14.9791 1.65522 16.9594 0.119056 19.7222C0.0627227 19.8177 0.0253569 19.924 0.0091637 20.0348C-0.00702948 20.1456 -0.00172202 20.2586 0.0247729 20.3672C0.0512678 20.4758 0.0984136 20.5778 0.163428 20.6672C0.228443 20.7565 0.31001 20.8314 0.403317 20.8875C0.496623 20.9435 0.59978 20.9796 0.706699 20.9935C0.813619 21.0074 0.922135 20.9989 1.02585 20.9685C1.12956 20.9381 1.22636 20.8864 1.31055 20.8165C1.39474 20.7465 1.46461 20.6598 1.51603 20.5613C3.41631 17.1461 6.77508 15.107 10.5 15.107C14.2249 15.107 17.5837 17.1461 19.484 20.5613C19.5354 20.6598 19.6053 20.7465 19.6894 20.8165C19.7736 20.8864 19.8704 20.9381 19.9742 20.9685C20.0779 20.9989 20.1864 21.0074 20.2933 20.9935C20.4002 20.9796 20.5034 20.9435 20.5967 20.8875C20.69 20.8314 20.7716 20.7565 20.8366 20.6672C20.9016 20.5778 20.9487 20.4758 20.9752 20.3672C21.0017 20.2586 21.007 20.1456 20.9908 20.0348C20.9746 19.924 20.9373 19.8177 20.8809 19.7222ZM4.8516 7.55494C4.8516 6.3932 5.18288 5.25756 5.80353 4.29161C6.42418 3.32566 7.30634 2.57279 8.33845 2.12821C9.37056 1.68364 10.5063 1.56732 11.6019 1.79396C12.6976 2.0206 13.7041 2.58003 14.494 3.4015C15.284 4.22298 15.8219 5.26959 16.0399 6.40901C16.2578 7.54842 16.146 8.72946 15.7184 9.80276C15.2909 10.8761 14.567 11.7934 13.6381 12.4389C12.7092 13.0843 11.6171 13.4288 10.5 13.4288C9.00244 13.4271 7.56668 12.8077 6.50775 11.7065C5.44882 10.6053 4.85321 9.11227 4.8516 7.55494Z" fill="black"/>
</svg>
