<svg width="21" height="15" viewBox="0 0 21 15" fill="none" xmlns="http://www.w3.org/2000/svg">
<path d="M20.7179 8.71252C20.6444 8.76616 20.5607 8.80518 20.4717 8.82737C20.3826 8.84955 20.29 8.85447 20.199 8.84182C20.108 8.82918 20.0205 8.79923 19.9414 8.75368C19.8623 8.70814 19.7932 8.64789 19.738 8.57638C19.3162 8.02487 18.7671 7.5774 18.1349 7.27C17.5028 6.96259 16.8052 6.80383 16.0984 6.8065C15.9608 6.80648 15.8262 6.767 15.7115 6.693C15.5969 6.61899 15.5072 6.51374 15.4536 6.3904C15.4173 6.30665 15.3986 6.21667 15.3986 6.12577C15.3986 6.03487 15.4173 5.94489 15.4536 5.86114C15.5072 5.73781 15.5969 5.63256 15.7115 5.55855C15.8262 5.48454 15.9608 5.44506 16.0984 5.44505C16.4912 5.44502 16.876 5.33787 17.2093 5.13578C17.5425 4.93369 17.8108 4.64476 17.9837 4.30181C18.1565 3.95886 18.227 3.57563 18.1872 3.19565C18.1473 2.81568 17.9987 2.45419 17.7582 2.15224C17.5177 1.8503 17.195 1.62 16.8266 1.48751C16.4583 1.35502 16.0591 1.32565 15.6745 1.40273C15.2899 1.47981 14.9352 1.66026 14.6507 1.92358C14.3662 2.18689 14.1634 2.52252 14.0652 2.89234C14.0422 2.97894 14.0019 3.06029 13.9466 3.13174C13.8913 3.2032 13.8221 3.26336 13.7429 3.3088C13.6636 3.35423 13.576 3.38404 13.4849 3.39654C13.3939 3.40903 13.3012 3.40396 13.2122 3.38161C13.1231 3.35926 13.0395 3.32007 12.966 3.26628C12.8925 3.2125 12.8307 3.14516 12.7839 3.06812C12.7372 2.99108 12.7066 2.90585 12.6937 2.81729C12.6809 2.72873 12.6861 2.63858 12.7091 2.55198C12.8454 2.03915 13.1028 1.56433 13.461 1.1653C13.8191 0.766275 14.2681 0.45405 14.7721 0.253473C15.2762 0.0528962 15.8214 -0.0304974 16.3645 0.00992777C16.9075 0.0503529 17.4333 0.213481 17.9001 0.486333C18.3669 0.759184 18.7618 1.13423 19.0533 1.58162C19.3449 2.02902 19.525 2.53641 19.5794 3.06344C19.6339 3.59046 19.5611 4.12257 19.3669 4.61742C19.1726 5.11227 18.8624 5.5562 18.4607 5.9139C19.4124 6.31467 20.2398 6.95065 20.8605 7.75866C20.9157 7.83035 20.9557 7.91193 20.9784 7.9987C21.0011 8.08548 21.006 8.17576 20.9927 8.26436C20.9795 8.35297 20.9484 8.43816 20.9012 8.51506C20.8541 8.59197 20.7918 8.65907 20.7179 8.71252ZM16.004 13.9541C16.0546 14.0316 16.0886 14.1182 16.1039 14.2088C16.1192 14.2994 16.1156 14.3921 16.0931 14.4812C16.0707 14.5704 16.0299 14.6542 15.9732 14.7277C15.9166 14.8011 15.8453 14.8627 15.7636 14.9086C15.6818 14.9546 15.5914 14.984 15.4977 14.995C15.404 15.0061 15.3089 14.9986 15.2183 14.973C15.1276 14.9475 15.0432 14.9043 14.9701 14.8462C14.8971 14.7881 14.8369 14.7162 14.7931 14.6348C14.3522 13.9087 13.7242 13.307 12.9712 12.8889C12.2182 12.4709 11.3661 12.251 10.4991 12.251C9.63203 12.251 8.77996 12.4709 8.02694 12.8889C7.27392 13.307 6.64598 13.9087 6.20507 14.6348C6.16131 14.7162 6.10109 14.7881 6.02802 14.8462C5.95495 14.9043 5.87055 14.9475 5.77989 14.973C5.68923 14.9986 5.59419 15.0061 5.50048 14.995C5.40677 14.984 5.31633 14.9546 5.23461 14.9086C5.15288 14.8627 5.08155 14.8011 5.02492 14.7277C4.96828 14.6542 4.92751 14.5704 4.90505 14.4812C4.88259 14.3921 4.87891 14.2994 4.89424 14.2088C4.90956 14.1182 4.94356 14.0316 4.9942 13.9541C5.67277 12.8202 6.70743 11.9278 7.94612 11.4082C7.24911 10.8892 6.73686 10.1708 6.48136 9.35396C6.22586 8.53715 6.23997 7.66301 6.52171 6.85441C6.80344 6.0458 7.33863 5.34339 8.05204 4.84591C8.76546 4.34842 9.62124 4.08088 10.4991 4.08088C11.3769 4.08088 12.2327 4.34842 12.9461 4.84591C13.6595 5.34339 14.1947 6.0458 14.4765 6.85441C14.7582 7.66301 14.7723 8.53715 14.5168 9.35396C14.2613 10.1708 13.7491 10.8892 13.052 11.4082C14.2907 11.9278 15.3254 12.8202 16.004 13.9541ZM10.4991 10.8908C11.0528 10.8908 11.5941 10.7311 12.0545 10.4319C12.5149 10.1327 12.8738 9.70749 13.0857 9.20995C13.2976 8.7124 13.353 8.16492 13.245 7.63673C13.1369 7.10854 12.8703 6.62337 12.4788 6.24257C12.0872 5.86176 11.5884 5.60243 11.0453 5.49737C10.5022 5.39231 9.93926 5.44623 9.42769 5.65232C8.91611 5.85841 8.47886 6.20741 8.17123 6.65518C7.8636 7.10296 7.6994 7.6294 7.6994 8.16794C7.6994 8.8901 7.99436 9.58267 8.51941 10.0933C9.04445 10.604 9.75656 10.8908 10.4991 10.8908ZM5.59963 6.12577C5.59963 5.94523 5.52589 5.77209 5.39463 5.64443C5.26337 5.51677 5.08534 5.44505 4.89971 5.44505C4.50699 5.44502 4.12216 5.33787 3.78891 5.13578C3.45567 4.93369 3.18737 4.64476 3.0145 4.30181C2.84163 3.95886 2.77112 3.57563 2.81097 3.19565C2.85082 2.81568 2.99944 2.45419 3.23994 2.15224C3.48045 1.8503 3.8032 1.62 4.17153 1.48751C4.53987 1.35502 4.93902 1.32565 5.32366 1.40273C5.7083 1.47981 6.063 1.66026 6.34748 1.92358C6.63196 2.18689 6.8348 2.52252 6.93298 2.89234C6.97939 3.06723 7.09534 3.21704 7.25531 3.3088C7.41528 3.40055 7.60618 3.42674 7.78601 3.38161C7.96584 3.33647 8.11987 3.22371 8.21422 3.06812C8.30856 2.91254 8.33549 2.72687 8.28908 2.55198C8.15281 2.03915 7.89535 1.56433 7.5372 1.1653C7.17905 0.766275 6.73008 0.45405 6.22602 0.253473C5.72197 0.0528962 5.17673 -0.0304974 4.63371 0.00992777C4.09068 0.0503529 3.56485 0.213481 3.09805 0.486333C2.63126 0.759184 2.23638 1.13423 1.94484 1.58162C1.6533 2.02902 1.47315 2.53641 1.41872 3.06344C1.36428 3.59046 1.43707 4.12257 1.63129 4.61742C1.82552 5.11227 2.13581 5.5562 2.53748 5.9139C1.58671 6.31505 0.760304 6.951 0.14025 7.75866C0.0287553 7.90309 -0.0191794 8.08468 0.00699064 8.26348C0.0331607 8.44229 0.131292 8.60366 0.279796 8.71209C0.428301 8.82053 0.615014 8.86715 0.798861 8.8417C0.982708 8.81625 1.14863 8.72081 1.26012 8.57638C1.68199 8.02487 2.2311 7.5774 2.86326 7.27C3.49541 6.96259 4.19295 6.80383 4.89971 6.8065C5.08534 6.8065 5.26337 6.73478 5.39463 6.60712C5.52589 6.47946 5.59963 6.30631 5.59963 6.12577Z" fill="black"/>
</svg>
