<svg width="24" height="24" viewBox="0 0 24 24" fill="none" xmlns="http://www.w3.org/2000/svg">
<path d="M18.9912 1.84961C19.8297 1.8497 20.626 2.18325 21.2246 2.77441C21.825 3.36743 22.1503 4.17171 22.1504 5.00879V18.9912C22.1503 19.8297 21.8168 20.626 21.2256 21.2246C20.6326 21.825 19.8283 22.1503 18.9912 22.1504H5.00879C4.17027 22.1503 3.37404 21.8168 2.77539 21.2256C2.17497 20.6326 1.8497 19.8283 1.84961 18.9912V5.00879C1.8497 4.17027 2.18325 3.37404 2.77441 2.77539C3.36743 2.17497 4.17171 1.8497 5.00879 1.84961H18.9912ZM17.7266 9.04688H16.2344C15.9156 9.04689 15.7056 9.11511 15.5654 9.23047C15.4267 9.34466 15.3333 9.52307 15.2881 9.79199L15.2891 9.79297C15.267 9.93713 15.2564 10.0837 15.2578 10.2295V11.0762H17.7227L17.6982 11.2471L17.3711 13.5273L17.4629 13.71H15.2559V20.3936H18.9912C19.1755 20.3941 19.358 20.3574 19.5283 20.2871C19.6986 20.2168 19.8531 20.1137 19.9834 19.9834C20.1137 19.8531 20.2168 19.6986 20.2871 19.5283C20.3574 19.358 20.3941 19.1755 20.3936 18.9912V5.00879C20.3937 4.82484 20.3574 4.64266 20.2871 4.47266C20.2167 4.30245 20.1136 4.14685 19.9834 4.0166C19.8532 3.88635 19.6976 3.7833 19.5273 3.71289C19.3573 3.64264 19.1752 3.6063 18.9912 3.60645H5.00977L4.87109 3.61426C4.55027 3.64688 4.24856 3.78854 4.01855 4.01855C3.75569 4.28141 3.60747 4.63803 3.60645 5.00977V18.9902C3.60747 19.362 3.7557 19.7186 4.01855 19.9814C4.28141 20.2443 4.63803 20.3925 5.00977 20.3936H12.6279V13.71H10.3008V11.082H12.6279V9.98047C12.6279 8.77301 12.9225 7.87618 13.4941 7.28125C14.0669 6.68523 14.8941 6.41699 15.9062 6.41699C16.8293 6.417 17.3326 6.48369 17.5762 6.51758H17.5771L17.5918 6.51953L17.7266 6.5332V9.04688Z" fill="white" stroke="white" stroke-width="0.3"/>
</svg>
