<svg width="24" height="24" viewBox="0 0 24 24" fill="none" xmlns="http://www.w3.org/2000/svg">
<path d="M20.3677 6.36937C20.2841 6.03412 20.0465 5.781 19.7748 5.70337C19.293 5.565 16.9511 5.25 12.0011 5.25C7.0511 5.25 4.7103 5.565 4.2252 5.70337C3.9568 5.77987 3.7192 6.033 3.6345 6.36937C3.5146 6.84637 3.2011 8.84438 3.2011 12C3.2011 15.1556 3.5146 17.1525 3.6345 17.6318C3.7181 17.9659 3.9557 18.219 4.2263 18.2955C4.7103 18.435 7.05 18.75 12 18.75C16.95 18.75 19.2919 18.435 19.7759 18.2966C20.0443 18.2201 20.2819 17.967 20.3666 17.6306C20.4876 17.1536 20.8 15.15 20.8 12C20.8 8.85 20.4876 6.8475 20.3677 6.36937ZM22.4973 5.81025C23 7.815 23 12 23 12C23 12 23 16.185 22.4973 18.1898C22.2179 19.2979 21.4006 20.1698 20.3655 20.4645C18.4867 21 12 21 12 21C12 21 5.5177 21 3.6345 20.4645C2.595 20.1653 1.7788 19.2945 1.5027 18.1898C1 16.185 1 12 1 12C1 12 1 7.815 1.5027 5.81025C1.7821 4.70213 2.5994 3.83025 3.6345 3.5355C5.5188 3 12.0011 3 12.0011 3C12.0011 3 18.4867 3 20.3666 3.5355C21.405 3.83475 22.2223 4.7055 22.4984 5.81025M9.8011 15.9375V8.0625L16.4011 12L9.8011 15.9375Z" fill="white"/>
</svg>
