<svg width="24" height="24" viewBox="0 0 24 24" fill="none" xmlns="http://www.w3.org/2000/svg">
<path fill-rule="evenodd" clip-rule="evenodd" d="M14.0308 7.46983C13.8902 7.32938 13.6996 7.25049 13.5008 7.25049C13.3021 7.25049 13.1114 7.32938 12.9708 7.46983L8.97082 11.4698C8.83037 11.6105 8.75148 11.8011 8.75148 11.9998C8.75148 12.1986 8.83037 12.3892 8.97082 12.5298L12.9708 16.5298C13.0395 16.6035 13.1223 16.6626 13.2143 16.7036C13.3063 16.7446 13.4056 16.7666 13.5063 16.7684C13.607 16.7702 13.707 16.7517 13.8004 16.714C13.8938 16.6762 13.9786 16.6201 14.0499 16.5489C14.1211 16.4776 14.1772 16.3928 14.2149 16.2994C14.2527 16.206 14.2712 16.106 14.2694 16.0053C14.2676 15.9046 14.2456 15.8053 14.2046 15.7133C14.1636 15.6213 14.1045 15.5385 14.0308 15.4698L10.5608 11.9998L14.0308 8.52983C14.1713 8.3892 14.2502 8.19858 14.2502 7.99983C14.2502 7.80108 14.1713 7.61045 14.0308 7.46983Z" fill="#3D6A8A"/>
</svg>
