<svg width="30" height="30" viewBox="0 0 30 30" fill="none" xmlns="http://www.w3.org/2000/svg">
<path d="M25 7.5H20V6.25C20 5.25544 19.6049 4.30161 18.9017 3.59835C18.1984 2.89509 17.2446 2.5 16.25 2.5H13.75C12.7554 2.5 11.8016 2.89509 11.0983 3.59835C10.3951 4.30161 10 5.25544 10 6.25V7.5H5C4.66848 7.5 4.35054 7.6317 4.11612 7.86612C3.8817 8.10054 3.75 8.41848 3.75 8.75C3.75 9.08152 3.8817 9.39946 4.11612 9.63388C4.35054 9.8683 4.66848 10 5 10H6.25V23.75C6.25 24.7446 6.64509 25.6984 7.34835 26.4017C8.05161 27.1049 9.00544 27.5 10 27.5H20C20.9946 27.5 21.9484 27.1049 22.6517 26.4017C23.3549 25.6984 23.75 24.7446 23.75 23.75V10H25C25.3315 10 25.6495 9.8683 25.8839 9.63388C26.1183 9.39946 26.25 9.08152 26.25 8.75C26.25 8.41848 26.1183 8.10054 25.8839 7.86612C25.6495 7.6317 25.3315 7.5 25 7.5ZM12.5 6.25C12.5 5.91848 12.6317 5.60054 12.8661 5.36612C13.1005 5.1317 13.4185 5 13.75 5H16.25C16.5815 5 16.8995 5.1317 17.1339 5.36612C17.3683 5.60054 17.5 5.91848 17.5 6.25V7.5H12.5V6.25ZM21.25 23.75C21.25 24.0815 21.1183 24.3995 20.8839 24.6339C20.6495 24.8683 20.3315 25 20 25H10C9.66848 25 9.35054 24.8683 9.11612 24.6339C8.8817 24.3995 8.75 24.0815 8.75 23.75V10H21.25V23.75Z" fill="#C83C3C"/>
</svg>
