<svg width="30" height="30" viewBox="0 0 30 30" fill="none" xmlns="http://www.w3.org/2000/svg">
<path d="M14.375 19.4712V8.65875L11.4625 11.5712L10.5775 10.6737L15 6.25L19.4237 10.6737L18.5388 11.5725L15.625 8.65875V19.4712H14.375ZM8.27 23.75C7.69417 23.75 7.21375 23.5575 6.82875 23.1725C6.44375 22.7875 6.25083 22.3067 6.25 21.73V18.7013H7.5V21.73C7.5 21.9225 7.58 22.0992 7.74 22.26C7.9 22.4208 8.07625 22.5008 8.26875 22.5H21.7313C21.9229 22.5 22.0992 22.42 22.26 22.26C22.4208 22.1 22.5008 21.9233 22.5 21.73V18.7013H23.75V21.73C23.75 22.3058 23.5575 22.7863 23.1725 23.1713C22.7875 23.5563 22.3067 23.7492 21.73 23.75H8.27Z" fill="#0C1822"/>
</svg>
