<svg width="42" height="42" viewBox="0 0 42 42" fill="none" xmlns="http://www.w3.org/2000/svg">
<g clip-path="url(#clip0_2021_1249)">
<rect width="42" height="42" rx="21" fill="#EFE69A" fill-opacity="0.6"/>
<path d="M10 42H32V36.6429C31.9971 34.6546 31.1849 32.7486 29.7415 31.3427C28.2981 29.9368 26.3413 29.1457 24.3 29.1429H17.7C15.6587 29.1457 13.7019 29.9368 12.2585 31.3427C10.8151 32.7486 10.0029 34.6546 10 36.6429V42ZM13.3 19.5C13.3 20.9834 13.7516 22.4334 14.5977 23.6668C15.4438 24.9001 16.6463 25.8614 18.0533 26.4291C19.4603 26.9968 21.0085 27.1453 22.5022 26.8559C23.9959 26.5665 25.3679 25.8522 26.4447 24.8033C27.5216 23.7544 28.2549 22.418 28.552 20.9632C28.8492 19.5083 28.6967 18.0003 28.1139 16.6299C27.5311 15.2594 26.5441 14.0881 25.2779 13.264C24.0116 12.4399 22.5229 12 21 12C18.9578 12 16.9993 12.7902 15.5553 14.1967C14.1112 15.6032 13.3 17.5109 13.3 19.5Z" fill="#FAB84C"/>
</g>
<defs>
<clipPath id="clip0_2021_1249">
<rect width="42" height="42" rx="21" fill="white"/>
</clipPath>
</defs>
</svg>
