<svg width="18" height="15" viewBox="0 0 18 15" fill="none" xmlns="http://www.w3.org/2000/svg">
<path d="M17.2679 4.04412C17.0165 3.91911 16.7315 3.88162 16.457 3.93747C16.1825 3.99332 15.9337 4.13938 15.7493 4.35307L13.0438 7.31132L10.1672 0.766325C10.1671 0.76361 10.1671 0.760889 10.1672 0.758174C10.0644 0.531839 9.89976 0.340143 9.69285 0.205776C9.48594 0.0714097 9.24541 0 8.99974 0C8.75407 0 8.51354 0.0714097 8.30663 0.205776C8.09972 0.340143 7.93509 0.531839 7.83223 0.758174C7.83236 0.760889 7.83236 0.76361 7.83223 0.766325L4.95564 7.31132L2.2502 4.35307C2.06456 4.13934 1.81506 3.99315 1.5398 3.93683C1.26455 3.88051 0.978696 3.91716 0.72591 4.04118C0.473124 4.1652 0.267312 4.36977 0.139922 4.62364C0.0125319 4.8775 -0.0294309 5.16669 0.0204456 5.44703C0.0204456 5.456 0.0204455 5.46415 0.0260701 5.47311L1.84845 13.9403C1.90454 14.2384 2.06139 14.5074 2.29196 14.7008C2.52253 14.8943 2.81238 15.0001 3.11157 15H14.8887C15.1878 14.9999 15.4774 14.894 15.7078 14.7006C15.9382 14.5072 16.095 14.2383 16.151 13.9403L17.9734 5.47311C17.9734 5.46415 17.9734 5.456 17.979 5.44703C18.0299 5.16634 17.9877 4.87649 17.859 4.62269C17.7304 4.3689 17.5225 4.16546 17.2679 4.04412ZM14.8935 13.6696L14.8887 13.6957H3.11077L3.10595 13.6696L1.28598 5.21797L1.29723 5.23101L4.672 8.91883C4.74427 8.99805 4.83478 9.05784 4.93543 9.09282C5.03608 9.12781 5.14372 9.1369 5.24869 9.11929C5.35365 9.10168 5.45267 9.05791 5.53686 8.99191C5.62104 8.9259 5.68776 8.83974 5.73104 8.74113L8.99974 1.30515L12.2692 8.74357C12.3125 8.84218 12.3792 8.92835 12.4634 8.99435C12.5476 9.06035 12.6466 9.10412 12.7516 9.12174C12.8566 9.13935 12.9642 9.13026 13.0649 9.09527C13.1655 9.06028 13.256 9.0005 13.3283 8.92128L16.7031 5.23345L16.7135 5.21797L14.8935 13.6696Z" fill="black"/>
</svg>
