<svg width="13" height="15" viewBox="0 0 13 15" fill="none" xmlns="http://www.w3.org/2000/svg">
<path d="M11.9167 5H9.75V3.33333C9.75 2.44928 9.40759 1.60143 8.7981 0.976311C8.1886 0.351189 7.36195 0 6.5 0C5.63805 0 4.8114 0.351189 4.2019 0.976311C3.59241 1.60143 3.25 2.44928 3.25 3.33333V5H1.08333C0.796016 5 0.520465 5.11706 0.317301 5.32544C0.114137 5.53381 0 5.81643 0 6.11111V13.8889C0 14.1836 0.114137 14.4662 0.317301 14.6746C0.520465 14.8829 0.796016 15 1.08333 15H11.9167C12.204 15 12.4795 14.8829 12.6827 14.6746C12.8859 14.4662 13 14.1836 13 13.8889V6.11111C13 5.81643 12.8859 5.53381 12.6827 5.32544C12.4795 5.11706 12.204 5 11.9167 5ZM4.33333 3.33333C4.33333 2.74396 4.56161 2.17873 4.96794 1.76198C5.37426 1.34524 5.92536 1.11111 6.5 1.11111C7.07464 1.11111 7.62574 1.34524 8.03206 1.76198C8.43839 2.17873 8.66667 2.74396 8.66667 3.33333V5H4.33333V3.33333ZM11.9167 13.8889H1.08333V6.11111H11.9167V13.8889ZM7.3125 10C7.3125 10.1648 7.26485 10.3259 7.17557 10.463C7.08629 10.6 6.95939 10.7068 6.81093 10.7699C6.66247 10.833 6.4991 10.8495 6.34149 10.8173C6.18388 10.7852 6.03911 10.7058 5.92548 10.5893C5.81185 10.4727 5.73446 10.3242 5.70311 10.1626C5.67176 10.0009 5.68785 9.83337 5.74935 9.6811C5.81084 9.52883 5.91498 9.39868 6.0486 9.30711C6.18221 9.21554 6.3393 9.16667 6.5 9.16667C6.71549 9.16667 6.92215 9.25447 7.07452 9.41075C7.2269 9.56703 7.3125 9.77899 7.3125 10Z" fill="#3D6A8A"/>
</svg>
