<svg width="26" height="29" viewBox="0 0 26 29" fill="none" xmlns="http://www.w3.org/2000/svg">
<path d="M25.705 21.1849C24.9533 19.8519 23.8359 16.0804 23.8359 11.1543C23.8359 8.19602 22.6943 5.35887 20.6623 3.26703C18.6303 1.17518 15.8744 0 13.0007 0C10.127 0 7.37103 1.17518 5.33903 3.26703C3.30703 5.35887 2.16547 8.19602 2.16547 11.1543C2.16547 16.0818 1.04674 19.8519 0.295044 21.1849C0.103085 21.5237 0.00132094 21.9087 1.27733e-05 22.301C-0.00129539 22.6933 0.0978992 23.079 0.287593 23.4192C0.477287 23.7594 0.750772 24.0421 1.08047 24.2388C1.41016 24.4355 1.78441 24.5392 2.16547 24.5395H7.69278C7.94276 25.7988 8.60758 26.9305 9.57477 27.7433C10.542 28.5561 11.7522 29 13.0007 29C14.2492 29 15.4594 28.5561 16.4266 27.7433C17.3938 26.9305 18.0586 25.7988 18.3086 24.5395H23.8359C24.2168 24.539 24.5909 24.4351 24.9204 24.2383C25.2499 24.0415 25.5232 23.7588 25.7127 23.4186C25.9023 23.0784 26.0014 22.6928 26 22.3006C25.9986 21.9085 25.8969 21.5236 25.705 21.1849ZM13.0007 26.7704C12.3287 26.7702 11.6732 26.5555 11.1246 26.156C10.5759 25.7565 10.161 25.1918 9.93702 24.5395H16.0643C15.8403 25.1918 15.4254 25.7565 14.8768 26.156C14.3281 26.5555 13.6727 26.7702 13.0007 26.7704ZM2.16547 22.3087C3.20836 20.4626 4.33251 16.1849 4.33251 11.1543C4.33251 8.78768 5.24576 6.51796 6.87136 4.84449C8.49695 3.17101 10.7017 2.23087 13.0007 2.23087C15.2996 2.23087 17.5044 3.17101 19.13 4.84449C20.7556 6.51796 21.6688 8.78768 21.6688 11.1543C21.6688 16.1807 22.7903 20.4584 23.8359 22.3087H2.16547Z" fill="black"/>
</svg>
