<svg width="20" height="20" viewBox="0 0 20 20" fill="none" xmlns="http://www.w3.org/2000/svg">
<path d="M10.875 9.746C10.875 9.9685 10.809 10.186 10.6854 10.371C10.5618 10.556 10.3861 10.7002 10.1805 10.7854C9.97495 10.8705 9.74875 10.8928 9.53052 10.8494C9.31229 10.806 9.11184 10.6988 8.9545 10.5415C8.79717 10.3842 8.69002 10.1837 8.64662 9.96548C8.60321 9.74725 8.62549 9.52105 8.71064 9.31548C8.79578 9.10992 8.93998 8.93421 9.12498 8.8106C9.30999 8.68698 9.5275 8.621 9.75 8.621C10.0484 8.621 10.3345 8.73953 10.5455 8.95051C10.7565 9.16148 10.875 9.44763 10.875 9.746ZM5.625 8.621C5.4025 8.621 5.18499 8.68698 4.99998 8.8106C4.81498 8.93421 4.67078 9.10992 4.58564 9.31548C4.50049 9.52105 4.47821 9.74725 4.52162 9.96548C4.56502 10.1837 4.67217 10.3842 4.8295 10.5415C4.98684 10.6988 5.18729 10.806 5.40552 10.8494C5.62375 10.8928 5.84995 10.8705 6.05552 10.7854C6.26109 10.7002 6.43679 10.556 6.5604 10.371C6.68402 10.186 6.75 9.9685 6.75 9.746C6.75 9.44763 6.63147 9.16148 6.4205 8.95051C6.20952 8.73953 5.92337 8.621 5.625 8.621ZM13.875 8.621C13.6525 8.621 13.435 8.68698 13.25 8.8106C13.065 8.93421 12.9208 9.10992 12.8356 9.31548C12.7505 9.52105 12.7282 9.74725 12.7716 9.96548C12.815 10.1837 12.9222 10.3842 13.0795 10.5415C13.2368 10.6988 13.4373 10.806 13.6555 10.8494C13.8738 10.8928 14.1 10.8705 14.3055 10.7854C14.5111 10.7002 14.6868 10.556 14.8104 10.371C14.934 10.186 15 9.9685 15 9.746C15 9.44763 14.8815 9.16148 14.6705 8.95051C14.4595 8.73953 14.1734 8.621 13.875 8.621ZM19.5 9.746C19.5004 11.4293 19.0649 13.084 18.236 14.5491C17.4072 16.0142 16.2131 17.2398 14.77 18.1065C13.327 18.9732 11.6841 19.4515 10.0014 19.4949C8.31863 19.5383 6.6533 19.1453 5.1675 18.3541L1.97531 19.4182C1.71102 19.5063 1.4274 19.5191 1.15624 19.4551C0.885089 19.3911 0.637113 19.2529 0.44011 19.0559C0.243108 18.8589 0.104864 18.6109 0.0408727 18.3398C-0.0231183 18.0686 -0.0103272 17.785 0.0778122 17.5207L1.14187 14.3285C0.446389 13.0209 0.0579347 11.5721 0.0059975 10.0919C-0.0459397 8.61177 0.240005 7.13925 0.842128 5.78613C1.44425 4.433 2.34672 3.23482 3.48105 2.28256C4.61537 1.33029 5.95173 0.648948 7.38869 0.290259C8.82565 -0.0684305 10.3254 -0.0950433 11.7742 0.21244C13.223 0.519923 14.5827 1.15342 15.7501 2.06485C16.9175 2.97627 17.8619 4.14168 18.5116 5.47259C19.1614 6.8035 19.4994 8.26495 19.5 9.746ZM18 9.746C17.9996 8.48049 17.7082 7.23203 17.1481 6.0972C16.588 4.96237 15.7744 3.9716 14.7701 3.20153C13.7659 2.43147 12.5979 1.90276 11.3567 1.6563C10.1154 1.40985 8.83405 1.45226 7.61178 1.78025C6.38951 2.10824 5.25909 2.71302 4.30796 3.54781C3.35682 4.38259 2.61049 5.42499 2.12668 6.59437C1.64288 7.76375 1.43458 9.02876 1.5179 10.2915C1.60122 11.5543 1.97393 12.781 2.60719 13.8766C2.66034 13.9686 2.69334 14.0708 2.704 14.1765C2.71467 14.2822 2.70276 14.389 2.66906 14.4898L1.5 17.996L5.00625 16.8269C5.08262 16.8009 5.16275 16.7876 5.24344 16.7876C5.37516 16.7878 5.5045 16.8227 5.61844 16.8888C6.87263 17.6145 8.29581 17.997 9.74479 17.9979C11.1938 17.9988 12.6174 17.6181 13.8725 16.894C15.1276 16.17 16.1699 15.1281 16.8945 13.8733C17.619 12.6185 18.0003 11.195 18 9.746Z" fill="black"/>
</svg>
